<svg class="rich-terminal" viewBox="0 0 1360 879.5999999999999" xmlns="http://www.w3.org/2000/svg">
    <!-- Generated with Rich https://www.textualize.io -->
    <style>

    @font-face {
        font-family: "Fira Code";
        src: local("FiraCode-Regular"),
                url("https://cdnjs.cloudflare.com/ajax/libs/firacode/6.2.0/woff2/FiraCode-Regular.woff2") format("woff2"),
                url("https://cdnjs.cloudflare.com/ajax/libs/firacode/6.2.0/woff/FiraCode-Regular.woff") format("woff");
        font-style: normal;
        font-weight: 400;
    }
    @font-face {
        font-family: "Fira Code";
        src: local("FiraCode-Bold"),
                url("https://cdnjs.cloudflare.com/ajax/libs/firacode/6.2.0/woff2/FiraCode-Bold.woff2") format("woff2"),
                url("https://cdnjs.cloudflare.com/ajax/libs/firacode/6.2.0/woff/FiraCode-Bold.woff") format("woff");
        font-style: bold;
        font-weight: 700;
    }

    .terminal-4267830071-matrix {
        font-family: Fira Code, monospace;
        font-size: 20px;
        line-height: 24.4px;
        font-variant-east-asian: full-width;
    }

    .terminal-4267830071-title {
        font-size: 18px;
        font-weight: bold;
        font-family: arial;
    }

    .terminal-4267830071-r1 { fill: #c5c8c6 }
.terminal-4267830071-r2 { fill: #cf7259;font-weight: bold }
.terminal-4267830071-r3 { fill: #7f9e79 }
.terminal-4267830071-r4 { fill: #5e5c58;font-weight: bold }
.terminal-4267830071-r5 { fill: #cfcac1 }
.terminal-4267830071-r6 { fill: #c9962c }
.terminal-4267830071-r7 { fill: #8c8880 }
.terminal-4267830071-r8 { fill: #e6e1d8;font-weight: bold }
.terminal-4267830071-r9 { fill: #141416 }
    </style>

    <defs>
    <clipPath id="terminal-4267830071-clip-terminal">
      <rect x="0" y="0" width="1341.0" height="828.5999999999999" />
    </clipPath>
    <clipPath id="terminal-4267830071-line-0">
    <rect x="0" y="1.5" width="1342" height="24.65"/>
            </clipPath>
<clipPath id="terminal-4267830071-line-1">
    <rect x="0" y="25.9" width="1342" height="24.65"/>
            </clipPath>
<clipPath id="terminal-4267830071-line-2">
    <rect x="0" y="50.3" width="1342" height="24.65"/>
            </clipPath>
<clipPath id="terminal-4267830071-line-3">
    <rect x="0" y="74.7" width="1342" height="24.65"/>
            </clipPath>
<clipPath id="terminal-4267830071-line-4">
    <rect x="0" y="99.1" width="1342" height="24.65"/>
            </clipPath>
<clipPath id="terminal-4267830071-line-5">
    <rect x="0" y="123.5" width="1342" height="24.65"/>
            </clipPath>
<clipPath id="terminal-4267830071-line-6">
    <rect x="0" y="147.9" width="1342" height="24.65"/>
            </clipPath>
<clipPath id="terminal-4267830071-line-7">
    <rect x="0" y="172.3" width="1342" height="24.65"/>
            </clipPath>
<clipPath id="terminal-4267830071-line-8">
    <rect x="0" y="196.7" width="1342" height="24.65"/>
            </clipPath>
<clipPath id="terminal-4267830071-line-9">
    <rect x="0" y="221.1" width="1342" height="24.65"/>
            </clipPath>
<clipPath id="terminal-4267830071-line-10">
    <rect x="0" y="245.5" width="1342" height="24.65"/>
            </clipPath>
<clipPath id="terminal-4267830071-line-11">
    <rect x="0" y="269.9" width="1342" height="24.65"/>
            </clipPath>
<clipPath id="terminal-4267830071-line-12">
    <rect x="0" y="294.3" width="1342" height="24.65"/>
            </clipPath>
<clipPath id="terminal-4267830071-line-13">
    <rect x="0" y="318.7" width="1342" height="24.65"/>
            </clipPath>
<clipPath id="terminal-4267830071-line-14">
    <rect x="0" y="343.1" width="1342" height="24.65"/>
            </clipPath>
<clipPath id="terminal-4267830071-line-15">
    <rect x="0" y="367.5" width="1342" height="24.65"/>
            </clipPath>
<clipPath id="terminal-4267830071-line-16">
    <rect x="0" y="391.9" width="1342" height="24.65"/>
            </clipPath>
<clipPath id="terminal-4267830071-line-17">
    <rect x="0" y="416.3" width="1342" height="24.65"/>
            </clipPath>
<clipPath id="terminal-4267830071-line-18">
    <rect x="0" y="440.7" width="1342" height="24.65"/>
            </clipPath>
<clipPath id="terminal-4267830071-line-19">
    <rect x="0" y="465.1" width="1342" height="24.65"/>
            </clipPath>
<clipPath id="terminal-4267830071-line-20">
    <rect x="0" y="489.5" width="1342" height="24.65"/>
            </clipPath>
<clipPath id="terminal-4267830071-line-21">
    <rect x="0" y="513.9" width="1342" height="24.65"/>
            </clipPath>
<clipPath id="terminal-4267830071-line-22">
    <rect x="0" y="538.3" width="1342" height="24.65"/>
            </clipPath>
<clipPath id="terminal-4267830071-line-23">
    <rect x="0" y="562.7" width="1342" height="24.65"/>
            </clipPath>
<clipPath id="terminal-4267830071-line-24">
    <rect x="0" y="587.1" width="1342" height="24.65"/>
            </clipPath>
<clipPath id="terminal-4267830071-line-25">
    <rect x="0" y="611.5" width="1342" height="24.65"/>
            </clipPath>
<clipPath id="terminal-4267830071-line-26">
    <rect x="0" y="635.9" width="1342" height="24.65"/>
            </clipPath>
<clipPath id="terminal-4267830071-line-27">
    <rect x="0" y="660.3" width="1342" height="24.65"/>
            </clipPath>
<clipPath id="terminal-4267830071-line-28">
    <rect x="0" y="684.7" width="1342" height="24.65"/>
            </clipPath>
<clipPath id="terminal-4267830071-line-29">
    <rect x="0" y="709.1" width="1342" height="24.65"/>
            </clipPath>
<clipPath id="terminal-4267830071-line-30">
    <rect x="0" y="733.5" width="1342" height="24.65"/>
            </clipPath>
<clipPath id="terminal-4267830071-line-31">
    <rect x="0" y="757.9" width="1342" height="24.65"/>
            </clipPath>
<clipPath id="terminal-4267830071-line-32">
    <rect x="0" y="782.3" width="1342" height="24.65"/>
            </clipPath>
    </defs>

    <rect fill="#292929" stroke="rgba(255,255,255,0.35)" stroke-width="1" x="1" y="1" width="1358" height="877.6" rx="8"/><text class="terminal-4267830071-title" fill="#c5c8c6" text-anchor="middle" x="679" y="27">kratos&#160;—&#160;subagent</text>
            <g transform="translate(26,22)">
            <circle cx="0" cy="0" r="7" fill="#ff5f57"/>
            <circle cx="22" cy="0" r="7" fill="#febc2e"/>
            <circle cx="44" cy="0" r="7" fill="#28c840"/>
            </g>
        
    <g transform="translate(9, 41)" clip-path="url(#terminal-4267830071-clip-terminal)">
    <rect fill="#0b0b0d" x="0" y="1.5" width="1342" height="24.65" shape-rendering="crispEdges"/><rect fill="#0b0b0d" x="0" y="25.9" width="24.4" height="24.65" shape-rendering="crispEdges"/><rect fill="#0b0b0d" x="24.4" y="25.9" width="1024.8" height="24.65" shape-rendering="crispEdges"/><rect fill="#0b0b0d" x="1049.2" y="25.9" width="268.4" height="24.65" shape-rendering="crispEdges"/><rect fill="#0b0b0d" x="1317.6" y="25.9" width="24.4" height="24.65" shape-rendering="crispEdges"/><rect fill="#0b0b0d" x="0" y="50.3" width="24.4" height="24.65" shape-rendering="crispEdges"/><rect fill="#0b0b0d" x="24.4" y="50.3" width="1244.4" height="24.65" shape-rendering="crispEdges"/><rect fill="#0b0b0d" x="1268.8" y="50.3" width="48.8" height="24.65" shape-rendering="crispEdges"/><rect fill="#0b0b0d" x="1317.6" y="50.3" width="24.4" height="24.65" shape-rendering="crispEdges"/><rect fill="#0b0b0d" x="0" y="74.7" width="24.4" height="24.65" shape-rendering="crispEdges"/><rect fill="#0b0b0d" x="24.4" y="74.7" width="1293.2" height="24.65" shape-rendering="crispEdges"/><rect fill="#0b0b0d" x="1317.6" y="74.7" width="24.4" height="24.65" shape-rendering="crispEdges"/><rect fill="#0b0b0d" x="0" y="99.1" width="24.4" height="24.65" shape-rendering="crispEdges"/><rect fill="#141416" x="24.4" y="99.1" width="195.2" height="24.65" shape-rendering="crispEdges"/><rect fill="#141416" x="219.6" y="99.1" width="109.8" height="24.65" shape-rendering="crispEdges"/><rect fill="#141416" x="329.4" y="99.1" width="109.8" height="24.65" shape-rendering="crispEdges"/><rect fill="#141416" x="439.2" y="99.1" width="85.4" height="24.65" shape-rendering="crispEdges"/><rect fill="#141416" x="524.6" y="99.1" width="170.8" height="24.65" shape-rendering="crispEdges"/><rect fill="#141416" x="695.4" y="99.1" width="573.4" height="24.65" shape-rendering="crispEdges"/><rect fill="#141416" x="1268.8" y="99.1" width="48.8" height="24.65" shape-rendering="crispEdges"/><rect fill="#0b0b0d" x="1317.6" y="99.1" width="24.4" height="24.65" shape-rendering="crispEdges"/><rect fill="#0b0b0d" x="0" y="123.5" width="24.4" height="24.65" shape-rendering="crispEdges"/><rect fill="#141416" x="24.4" y="123.5" width="12.2" height="24.65" shape-rendering="crispEdges"/><rect fill="#141416" x="36.6" y="123.5" width="170.8" height="24.65" shape-rendering="crispEdges"/><rect fill="#141416" x="207.4" y="123.5" width="12.2" height="24.65" shape-rendering="crispEdges"/><rect fill="#141416" x="219.6" y="123.5" width="109.8" height="24.65" shape-rendering="crispEdges"/><rect fill="#141416" x="329.4" y="123.5" width="109.8" height="24.65" shape-rendering="crispEdges"/><rect fill="#141416" x="439.2" y="123.5" width="85.4" height="24.65" shape-rendering="crispEdges"/><rect fill="#141416" x="524.6" y="123.5" width="12.2" height="24.65" shape-rendering="crispEdges"/><rect fill="#141416" x="536.8" y="123.5" width="85.4" height="24.65" shape-rendering="crispEdges"/><rect fill="#141416" x="622.2" y="123.5" width="73.2" height="24.65" shape-rendering="crispEdges"/><rect fill="#141416" x="695.4" y="123.5" width="12.2" height="24.65" shape-rendering="crispEdges"/><rect fill="#141416" x="707.6" y="123.5" width="549" height="24.65" shape-rendering="crispEdges"/><rect fill="#141416" x="1256.6" y="123.5" width="12.2" height="24.65" shape-rendering="crispEdges"/><rect fill="#141416" x="1268.8" y="123.5" width="48.8" height="24.65" shape-rendering="crispEdges"/><rect fill="#0b0b0d" x="1317.6" y="123.5" width="24.4" height="24.65" shape-rendering="crispEdges"/><rect fill="#0b0b0d" x="0" y="147.9" width="24.4" height="24.65" shape-rendering="crispEdges"/><rect fill="#141416" x="24.4" y="147.9" width="12.2" height="24.65" shape-rendering="crispEdges"/><rect fill="#141416" x="36.6" y="147.9" width="134.2" height="24.65" shape-rendering="crispEdges"/><rect fill="#141416" x="170.8" y="147.9" width="48.8" height="24.65" shape-rendering="crispEdges"/><rect fill="#141416" x="219.6" y="147.9" width="109.8" height="24.65" shape-rendering="crispEdges"/><rect fill="#141416" x="329.4" y="147.9" width="109.8" height="24.65" shape-rendering="crispEdges"/><rect fill="#141416" x="439.2" y="147.9" width="85.4" height="24.65" shape-rendering="crispEdges"/><rect fill="#141416" x="524.6" y="147.9" width="12.2" height="24.65" shape-rendering="crispEdges"/><rect fill="#141416" x="536.8" y="147.9" width="73.2" height="24.65" shape-rendering="crispEdges"/><rect fill="#141416" x="610" y="147.9" width="85.4" height="24.65" shape-rendering="crispEdges"/><rect fill="#141416" x="695.4" y="147.9" width="12.2" height="24.65" shape-rendering="crispEdges"/><rect fill="#141416" x="707.6" y="147.9" width="329.4" height="24.65" shape-rendering="crispEdges"/><rect fill="#141416" x="1037" y="147.9" width="231.8" height="24.65" shape-rendering="crispEdges"/><rect fill="#141416" x="1268.8" y="147.9" width="48.8" height="24.65" shape-rendering="crispEdges"/><rect fill="#0b0b0d" x="1317.6" y="147.9" width="24.4" height="24.65" shape-rendering="crispEdges"/><rect fill="#0b0b0d" x="0" y="172.3" width="24.4" height="24.65" shape-rendering="crispEdges"/><rect fill="#232327" x="24.4" y="172.3" width="195.2" height="24.65" shape-rendering="crispEdges"/><rect fill="#232327" x="219.6" y="172.3" width="109.8" height="24.65" shape-rendering="crispEdges"/><rect fill="#232327" x="329.4" y="172.3" width="109.8" height="24.65" shape-rendering="crispEdges"/><rect fill="#232327" x="439.2" y="172.3" width="85.4" height="24.65" shape-rendering="crispEdges"/><rect fill="#232327" x="524.6" y="172.3" width="170.8" height="24.65" shape-rendering="crispEdges"/><rect fill="#232327" x="695.4" y="172.3" width="573.4" height="24.65" shape-rendering="crispEdges"/><rect fill="#232327" x="1268.8" y="172.3" width="48.8" height="24.65" shape-rendering="crispEdges"/><rect fill="#0b0b0d" x="1317.6" y="172.3" width="24.4" height="24.65" shape-rendering="crispEdges"/><rect fill="#0b0b0d" x="0" y="196.7" width="24.4" height="24.65" shape-rendering="crispEdges"/><rect fill="#0b0b0d" x="24.4" y="196.7" width="1293.2" height="24.65" shape-rendering="crispEdges"/><rect fill="#0b0b0d" x="1317.6" y="196.7" width="24.4" height="24.65" shape-rendering="crispEdges"/><rect fill="#0b0b0d" x="0" y="221.1" width="24.4" height="24.65" shape-rendering="crispEdges"/><rect fill="#0b0b0d" x="24.4" y="221.1" width="1293.2" height="24.65" shape-rendering="crispEdges"/><rect fill="#0b0b0d" x="1317.6" y="221.1" width="24.4" height="24.65" shape-rendering="crispEdges"/><rect fill="#0b0b0d" x="0" y="245.5" width="24.4" height="24.65" shape-rendering="crispEdges"/><rect fill="#0b0b0d" x="24.4" y="245.5" width="97.6" height="24.65" shape-rendering="crispEdges"/><rect fill="#0b0b0d" x="122" y="245.5" width="1195.6" height="24.65" shape-rendering="crispEdges"/><rect fill="#0b0b0d" x="1317.6" y="245.5" width="24.4" height="24.65" shape-rendering="crispEdges"/><rect fill="#0b0b0d" x="0" y="269.9" width="24.4" height="24.65" shape-rendering="crispEdges"/><rect fill="#0b0b0d" x="24.4" y="269.9" width="12.2" height="24.65" shape-rendering="crispEdges"/><rect fill="#0b0b0d" x="36.6" y="269.9" width="207.4" height="24.65" shape-rendering="crispEdges"/><rect fill="#0b0b0d" x="244" y="269.9" width="12.2" height="24.65" shape-rendering="crispEdges"/><rect fill="#0b0b0d" x="256.2" y="269.9" width="12.2" height="24.65" shape-rendering="crispEdges"/><rect fill="#0b0b0d" x="268.4" y="269.9" width="475.8" height="24.65" shape-rendering="crispEdges"/><rect fill="#0b0b0d" x="744.2" y="269.9" width="12.2" height="24.65" shape-rendering="crispEdges"/><rect fill="#0b0b0d" x="756.4" y="269.9" width="561.2" height="24.65" shape-rendering="crispEdges"/><rect fill="#0b0b0d" x="1317.6" y="269.9" width="24.4" height="24.65" shape-rendering="crispEdges"/><rect fill="#0b0b0d" x="0" y="294.3" width="24.4" height="24.65" shape-rendering="crispEdges"/><rect fill="#0b0b0d" x="24.4" y="294.3" width="12.2" height="24.65" shape-rendering="crispEdges"/><rect fill="#0b0b0d" x="36.6" y="294.3" width="207.4" height="24.65" shape-rendering="crispEdges"/><rect fill="#0b0b0d" x="244" y="294.3" width="12.2" height="24.65" shape-rendering="crispEdges"/><rect fill="#0b0b0d" x="256.2" y="294.3" width="12.2" height="24.65" shape-rendering="crispEdges"/><rect fill="#0b0b0d" x="268.4" y="294.3" width="475.8" height="24.65" shape-rendering="crispEdges"/><rect fill="#0b0b0d" x="744.2" y="294.3" width="12.2" height="24.65" shape-rendering="crispEdges"/><rect fill="#0b0b0d" x="756.4" y="294.3" width="561.2" height="24.65" shape-rendering="crispEdges"/><rect fill="#0b0b0d" x="1317.6" y="294.3" width="24.4" height="24.65" shape-rendering="crispEdges"/><rect fill="#0b0b0d" x="0" y="318.7" width="24.4" height="24.65" shape-rendering="crispEdges"/><rect fill="#0b0b0d" x="24.4" y="318.7" width="12.2" height="24.65" shape-rendering="crispEdges"/><rect fill="#0b0b0d" x="36.6" y="318.7" width="207.4" height="24.65" shape-rendering="crispEdges"/><rect fill="#0b0b0d" x="244" y="318.7" width="12.2" height="24.65" shape-rendering="crispEdges"/><rect fill="#0b0b0d" x="256.2" y="318.7" width="12.2" height="24.65" shape-rendering="crispEdges"/><rect fill="#0b0b0d" x="268.4" y="318.7" width="475.8" height="24.65" shape-rendering="crispEdges"/><rect fill="#0b0b0d" x="744.2" y="318.7" width="12.2" height="24.65" shape-rendering="crispEdges"/><rect fill="#0b0b0d" x="756.4" y="318.7" width="561.2" height="24.65" shape-rendering="crispEdges"/><rect fill="#0b0b0d" x="1317.6" y="318.7" width="24.4" height="24.65" shape-rendering="crispEdges"/><rect fill="#0b0b0d" x="0" y="343.1" width="24.4" height="24.65" shape-rendering="crispEdges"/><rect fill="#0b0b0d" x="24.4" y="343.1" width="12.2" height="24.65" shape-rendering="crispEdges"/><rect fill="#0b0b0d" x="36.6" y="343.1" width="207.4" height="24.65" shape-rendering="crispEdges"/><rect fill="#0b0b0d" x="244" y="343.1" width="12.2" height="24.65" shape-rendering="crispEdges"/><rect fill="#0b0b0d" x="256.2" y="343.1" width="12.2" height="24.65" shape-rendering="crispEdges"/><rect fill="#0b0b0d" x="268.4" y="343.1" width="475.8" height="24.65" shape-rendering="crispEdges"/><rect fill="#0b0b0d" x="744.2" y="343.1" width="12.2" height="24.65" shape-rendering="crispEdges"/><rect fill="#0b0b0d" x="756.4" y="343.1" width="561.2" height="24.65" shape-rendering="crispEdges"/><rect fill="#0b0b0d" x="1317.6" y="343.1" width="24.4" height="24.65" shape-rendering="crispEdges"/><rect fill="#0b0b0d" x="0" y="367.5" width="24.4" height="24.65" shape-rendering="crispEdges"/><rect fill="#0b0b0d" x="24.4" y="367.5" width="12.2" height="24.65" shape-rendering="crispEdges"/><rect fill="#0b0b0d" x="36.6" y="367.5" width="207.4" height="24.65" shape-rendering="crispEdges"/><rect fill="#0b0b0d" x="244" y="367.5" width="12.2" height="24.65" shape-rendering="crispEdges"/><rect fill="#0b0b0d" x="256.2" y="367.5" width="12.2" height="24.65" shape-rendering="crispEdges"/><rect fill="#0b0b0d" x="268.4" y="367.5" width="475.8" height="24.65" shape-rendering="crispEdges"/><rect fill="#0b0b0d" x="744.2" y="367.5" width="12.2" height="24.65" shape-rendering="crispEdges"/><rect fill="#0b0b0d" x="756.4" y="367.5" width="561.2" height="24.65" shape-rendering="crispEdges"/><rect fill="#0b0b0d" x="1317.6" y="367.5" width="24.4" height="24.65" shape-rendering="crispEdges"/><rect fill="#0b0b0d" x="0" y="391.9" width="24.4" height="24.65" shape-rendering="crispEdges"/><rect fill="#0b0b0d" x="24.4" y="391.9" width="12.2" height="24.65" shape-rendering="crispEdges"/><rect fill="#0b0b0d" x="36.6" y="391.9" width="207.4" height="24.65" shape-rendering="crispEdges"/><rect fill="#0b0b0d" x="244" y="391.9" width="12.2" height="24.65" shape-rendering="crispEdges"/><rect fill="#0b0b0d" x="256.2" y="391.9" width="12.2" height="24.65" shape-rendering="crispEdges"/><rect fill="#0b0b0d" x="268.4" y="391.9" width="475.8" height="24.65" shape-rendering="crispEdges"/><rect fill="#0b0b0d" x="744.2" y="391.9" width="12.2" height="24.65" shape-rendering="crispEdges"/><rect fill="#0b0b0d" x="756.4" y="391.9" width="561.2" height="24.65" shape-rendering="crispEdges"/><rect fill="#0b0b0d" x="1317.6" y="391.9" width="24.4" height="24.65" shape-rendering="crispEdges"/><rect fill="#0b0b0d" x="0" y="416.3" width="24.4" height="24.65" shape-rendering="crispEdges"/><rect fill="#0b0b0d" x="24.4" y="416.3" width="12.2" height="24.65" shape-rendering="crispEdges"/><rect fill="#0b0b0d" x="36.6" y="416.3" width="207.4" height="24.65" shape-rendering="crispEdges"/><rect fill="#0b0b0d" x="244" y="416.3" width="12.2" height="24.65" shape-rendering="crispEdges"/><rect fill="#0b0b0d" x="256.2" y="416.3" width="12.2" height="24.65" shape-rendering="crispEdges"/><rect fill="#0b0b0d" x="268.4" y="416.3" width="475.8" height="24.65" shape-rendering="crispEdges"/><rect fill="#0b0b0d" x="744.2" y="416.3" width="12.2" height="24.65" shape-rendering="crispEdges"/><rect fill="#0b0b0d" x="756.4" y="416.3" width="561.2" height="24.65" shape-rendering="crispEdges"/><rect fill="#0b0b0d" x="1317.6" y="416.3" width="24.4" height="24.65" shape-rendering="crispEdges"/><rect fill="#0b0b0d" x="0" y="440.7" width="24.4" height="24.65" shape-rendering="crispEdges"/><rect fill="#0b0b0d" x="24.4" y="440.7" width="12.2" height="24.65" shape-rendering="crispEdges"/><rect fill="#0b0b0d" x="36.6" y="440.7" width="207.4" height="24.65" shape-rendering="crispEdges"/><rect fill="#0b0b0d" x="244" y="440.7" width="12.2" height="24.65" shape-rendering="crispEdges"/><rect fill="#0b0b0d" x="256.2" y="440.7" width="12.2" height="24.65" shape-rendering="crispEdges"/><rect fill="#0b0b0d" x="268.4" y="440.7" width="475.8" height="24.65" shape-rendering="crispEdges"/><rect fill="#0b0b0d" x="744.2" y="440.7" width="12.2" height="24.65" shape-rendering="crispEdges"/><rect fill="#0b0b0d" x="756.4" y="440.7" width="561.2" height="24.65" shape-rendering="crispEdges"/><rect fill="#0b0b0d" x="1317.6" y="440.7" width="24.4" height="24.65" shape-rendering="crispEdges"/><rect fill="#0b0b0d" x="0" y="465.1" width="24.4" height="24.65" shape-rendering="crispEdges"/><rect fill="#0b0b0d" x="24.4" y="465.1" width="12.2" height="24.65" shape-rendering="crispEdges"/><rect fill="#0b0b0d" x="36.6" y="465.1" width="207.4" height="24.65" shape-rendering="crispEdges"/><rect fill="#0b0b0d" x="244" y="465.1" width="12.2" height="24.65" shape-rendering="crispEdges"/><rect fill="#0b0b0d" x="256.2" y="465.1" width="12.2" height="24.65" shape-rendering="crispEdges"/><rect fill="#0b0b0d" x="268.4" y="465.1" width="475.8" height="24.65" shape-rendering="crispEdges"/><rect fill="#0b0b0d" x="744.2" y="465.1" width="12.2" height="24.65" shape-rendering="crispEdges"/><rect fill="#0b0b0d" x="756.4" y="465.1" width="561.2" height="24.65" shape-rendering="crispEdges"/><rect fill="#0b0b0d" x="1317.6" y="465.1" width="24.4" height="24.65" shape-rendering="crispEdges"/><rect fill="#0b0b0d" x="0" y="489.5" width="24.4" height="24.65" shape-rendering="crispEdges"/><rect fill="#0b0b0d" x="24.4" y="489.5" width="12.2" height="24.65" shape-rendering="crispEdges"/><rect fill="#0b0b0d" x="36.6" y="489.5" width="207.4" height="24.65" shape-rendering="crispEdges"/><rect fill="#0b0b0d" x="244" y="489.5" width="12.2" height="24.65" shape-rendering="crispEdges"/><rect fill="#0b0b0d" x="256.2" y="489.5" width="12.2" height="24.65" shape-rendering="crispEdges"/><rect fill="#0b0b0d" x="268.4" y="489.5" width="475.8" height="24.65" shape-rendering="crispEdges"/><rect fill="#0b0b0d" x="744.2" y="489.5" width="12.2" height="24.65" shape-rendering="crispEdges"/><rect fill="#0b0b0d" x="756.4" y="489.5" width="561.2" height="24.65" shape-rendering="crispEdges"/><rect fill="#0b0b0d" x="1317.6" y="489.5" width="24.4" height="24.65" shape-rendering="crispEdges"/><rect fill="#0b0b0d" x="0" y="513.9" width="24.4" height="24.65" shape-rendering="crispEdges"/><rect fill="#0b0b0d" x="24.4" y="513.9" width="12.2" height="24.65" shape-rendering="crispEdges"/><rect fill="#0b0b0d" x="36.6" y="513.9" width="207.4" height="24.65" shape-rendering="crispEdges"/><rect fill="#0b0b0d" x="244" y="513.9" width="12.2" height="24.65" shape-rendering="crispEdges"/><rect fill="#0b0b0d" x="256.2" y="513.9" width="12.2" height="24.65" shape-rendering="crispEdges"/><rect fill="#0b0b0d" x="268.4" y="513.9" width="475.8" height="24.65" shape-rendering="crispEdges"/><rect fill="#0b0b0d" x="744.2" y="513.9" width="12.2" height="24.65" shape-rendering="crispEdges"/><rect fill="#0b0b0d" x="756.4" y="513.9" width="561.2" height="24.65" shape-rendering="crispEdges"/><rect fill="#0b0b0d" x="1317.6" y="513.9" width="24.4" height="24.65" shape-rendering="crispEdges"/><rect fill="#0b0b0d" x="0" y="538.3" width="24.4" height="24.65" shape-rendering="crispEdges"/><rect fill="#0b0b0d" x="24.4" y="538.3" width="12.2" height="24.65" shape-rendering="crispEdges"/><rect fill="#0b0b0d" x="36.6" y="538.3" width="85.4" height="24.65" shape-rendering="crispEdges"/><rect fill="#0b0b0d" x="122" y="538.3" width="12.2" height="24.65" shape-rendering="crispEdges"/><rect fill="#0b0b0d" x="134.2" y="538.3" width="12.2" height="24.65" shape-rendering="crispEdges"/><rect fill="#0b0b0d" x="146.4" y="538.3" width="109.8" height="24.65" shape-rendering="crispEdges"/><rect fill="#0b0b0d" x="256.2" y="538.3" width="12.2" height="24.65" shape-rendering="crispEdges"/><rect fill="#0b0b0d" x="268.4" y="538.3" width="12.2" height="24.65" shape-rendering="crispEdges"/><rect fill="#0b0b0d" x="280.6" y="538.3" width="134.2" height="24.65" shape-rendering="crispEdges"/><rect fill="#0b0b0d" x="414.8" y="538.3" width="12.2" height="24.65" shape-rendering="crispEdges"/><rect fill="#0b0b0d" x="427" y="538.3" width="890.6" height="24.65" shape-rendering="crispEdges"/><rect fill="#0b0b0d" x="1317.6" y="538.3" width="24.4" height="24.65" shape-rendering="crispEdges"/><rect fill="#0b0b0d" x="0" y="562.7" width="24.4" height="24.65" shape-rendering="crispEdges"/><rect fill="#0b0b0d" x="24.4" y="562.7" width="12.2" height="24.65" shape-rendering="crispEdges"/><rect fill="#0b0b0d" x="36.6" y="562.7" width="85.4" height="24.65" shape-rendering="crispEdges"/><rect fill="#0b0b0d" x="122" y="562.7" width="12.2" height="24.65" shape-rendering="crispEdges"/><rect fill="#0b0b0d" x="134.2" y="562.7" width="12.2" height="24.65" shape-rendering="crispEdges"/><rect fill="#0b0b0d" x="146.4" y="562.7" width="109.8" height="24.65" shape-rendering="crispEdges"/><rect fill="#0b0b0d" x="256.2" y="562.7" width="12.2" height="24.65" shape-rendering="crispEdges"/><rect fill="#0b0b0d" x="268.4" y="562.7" width="12.2" height="24.65" shape-rendering="crispEdges"/><rect fill="#0b0b0d" x="280.6" y="562.7" width="134.2" height="24.65" shape-rendering="crispEdges"/><rect fill="#0b0b0d" x="414.8" y="562.7" width="12.2" height="24.65" shape-rendering="crispEdges"/><rect fill="#0b0b0d" x="427" y="562.7" width="890.6" height="24.65" shape-rendering="crispEdges"/><rect fill="#0b0b0d" x="1317.6" y="562.7" width="24.4" height="24.65" shape-rendering="crispEdges"/><rect fill="#0b0b0d" x="0" y="587.1" width="24.4" height="24.65" shape-rendering="crispEdges"/><rect fill="#0b0b0d" x="24.4" y="587.1" width="12.2" height="24.65" shape-rendering="crispEdges"/><rect fill="#0b0b0d" x="36.6" y="587.1" width="85.4" height="24.65" shape-rendering="crispEdges"/><rect fill="#0b0b0d" x="122" y="587.1" width="12.2" height="24.65" shape-rendering="crispEdges"/><rect fill="#0b0b0d" x="134.2" y="587.1" width="12.2" height="24.65" shape-rendering="crispEdges"/><rect fill="#0b0b0d" x="146.4" y="587.1" width="109.8" height="24.65" shape-rendering="crispEdges"/><rect fill="#0b0b0d" x="256.2" y="587.1" width="12.2" height="24.65" shape-rendering="crispEdges"/><rect fill="#0b0b0d" x="268.4" y="587.1" width="12.2" height="24.65" shape-rendering="crispEdges"/><rect fill="#0b0b0d" x="280.6" y="587.1" width="134.2" height="24.65" shape-rendering="crispEdges"/><rect fill="#0b0b0d" x="414.8" y="587.1" width="12.2" height="24.65" shape-rendering="crispEdges"/><rect fill="#0b0b0d" x="427" y="587.1" width="890.6" height="24.65" shape-rendering="crispEdges"/><rect fill="#0b0b0d" x="1317.6" y="587.1" width="24.4" height="24.65" shape-rendering="crispEdges"/><rect fill="#0b0b0d" x="0" y="611.5" width="24.4" height="24.65" shape-rendering="crispEdges"/><rect fill="#0b0b0d" x="24.4" y="611.5" width="1293.2" height="24.65" shape-rendering="crispEdges"/><rect fill="#0b0b0d" x="1317.6" y="611.5" width="24.4" height="24.65" shape-rendering="crispEdges"/><rect fill="#0b0b0d" x="0" y="635.9" width="24.4" height="24.65" shape-rendering="crispEdges"/><rect fill="#0b0b0d" x="24.4" y="635.9" width="1293.2" height="24.65" shape-rendering="crispEdges"/><rect fill="#0b0b0d" x="1317.6" y="635.9" width="24.4" height="24.65" shape-rendering="crispEdges"/><rect fill="#0b0b0d" x="0" y="660.3" width="24.4" height="24.65" shape-rendering="crispEdges"/><rect fill="#0b0b0d" x="24.4" y="660.3" width="1293.2" height="24.65" shape-rendering="crispEdges"/><rect fill="#0b0b0d" x="1317.6" y="660.3" width="24.4" height="24.65" shape-rendering="crispEdges"/><rect fill="#0b0b0d" x="0" y="684.7" width="24.4" height="24.65" shape-rendering="crispEdges"/><rect fill="#0b0b0d" x="24.4" y="684.7" width="1293.2" height="24.65" shape-rendering="crispEdges"/><rect fill="#0b0b0d" x="1317.6" y="684.7" width="24.4" height="24.65" shape-rendering="crispEdges"/><rect fill="#0b0b0d" x="0" y="709.1" width="24.4" height="24.65" shape-rendering="crispEdges"/><rect fill="#0b0b0d" x="24.4" y="709.1" width="1293.2" height="24.65" shape-rendering="crispEdges"/><rect fill="#0b0b0d" x="1317.6" y="709.1" width="24.4" height="24.65" shape-rendering="crispEdges"/><rect fill="#0b0b0d" x="0" y="733.5" width="24.4" height="24.65" shape-rendering="crispEdges"/><rect fill="#0b0b0d" x="24.4" y="733.5" width="1293.2" height="24.65" shape-rendering="crispEdges"/><rect fill="#0b0b0d" x="1317.6" y="733.5" width="24.4" height="24.65" shape-rendering="crispEdges"/><rect fill="#0b0b0d" x="0" y="757.9" width="24.4" height="24.65" shape-rendering="crispEdges"/><rect fill="#0b0b0d" x="24.4" y="757.9" width="1293.2" height="24.65" shape-rendering="crispEdges"/><rect fill="#0b0b0d" x="1317.6" y="757.9" width="24.4" height="24.65" shape-rendering="crispEdges"/><rect fill="#0b0b0d" x="0" y="782.3" width="24.4" height="24.65" shape-rendering="crispEdges"/><rect fill="#0b0b0d" x="24.4" y="782.3" width="1085.8" height="24.65" shape-rendering="crispEdges"/><rect fill="#0b0b0d" x="1110.2" y="782.3" width="207.4" height="24.65" shape-rendering="crispEdges"/><rect fill="#0b0b0d" x="1317.6" y="782.3" width="24.4" height="24.65" shape-rendering="crispEdges"/><rect fill="#0b0b0d" x="0" y="806.7" width="1342" height="24.65" shape-rendering="crispEdges"/>
    <g class="terminal-4267830071-matrix">
    <text class="terminal-4267830071-r1" x="1342" y="20" textLength="12.2" clip-path="url(#terminal-4267830071-line-0)">
</text><text class="terminal-4267830071-r2" x="24.4" y="44.4" textLength="1024.8" clip-path="url(#terminal-4267830071-line-1)">Sub-agents&#160;—&#160;boxes&#160;Kratos&#160;reaches&#160;through&#160;a&#160;small&#160;agent&#160;(telemetry&#160;+&#160;investigations)</text><text class="terminal-4267830071-r1" x="1342" y="44.4" textLength="12.2" clip-path="url(#terminal-4267830071-line-1)">
</text><text class="terminal-4267830071-r3" x="24.4" y="68.8" textLength="1244.4" clip-path="url(#terminal-4267830071-line-2)">●&#160;Always-on&#160;listener&#160;(user&#160;service,&#160;pid&#160;4242):&#160;keeps&#160;receiving&#160;after&#160;you&#160;close&#160;Kratos.&#160;Starts&#160;at&#160;boot.</text><text class="terminal-4267830071-r1" x="1342" y="68.8" textLength="12.2" clip-path="url(#terminal-4267830071-line-2)">
</text><text class="terminal-4267830071-r1" x="1342" y="93.2" textLength="12.2" clip-path="url(#terminal-4267830071-line-3)">
</text><text class="terminal-4267830071-r4" x="24.4" y="117.6" textLength="195.2" clip-path="url(#terminal-4267830071-line-4)">&#160;status&#160;&#160;&#160;&#160;&#160;&#160;&#160;&#160;&#160;</text><text class="terminal-4267830071-r4" x="219.6" y="117.6" textLength="109.8" clip-path="url(#terminal-4267830071-line-4)">&#160;name&#160;&#160;&#160;&#160;</text><text class="terminal-4267830071-r4" x="329.4" y="117.6" textLength="109.8" clip-path="url(#terminal-4267830071-line-4)">&#160;host&#160;&#160;&#160;&#160;</text><text class="terminal-4267830071-r4" x="439.2" y="117.6" textLength="85.4" clip-path="url(#terminal-4267830071-line-4)">&#160;agent&#160;</text><text class="terminal-4267830071-r4" x="524.6" y="117.6" textLength="170.8" clip-path="url(#terminal-4267830071-line-4)">&#160;last&#160;contact&#160;</text><text class="terminal-4267830071-r4" x="695.4" y="117.6" textLength="573.4" clip-path="url(#terminal-4267830071-line-4)">&#160;detail&#160;&#160;&#160;&#160;&#160;&#160;&#160;&#160;&#160;&#160;&#160;&#160;&#160;&#160;&#160;&#160;&#160;&#160;&#160;&#160;&#160;&#160;&#160;&#160;&#160;&#160;&#160;&#160;&#160;&#160;&#160;&#160;&#160;&#160;&#160;&#160;&#160;&#160;&#160;&#160;</text><text class="terminal-4267830071-r1" x="1342" y="117.6" textLength="12.2" clip-path="url(#terminal-4267830071-line-4)">
</text><text class="terminal-4267830071-r6" x="36.6" y="142" textLength="170.8" clip-path="url(#terminal-4267830071-line-5)">↻&#160;reconnecting</text><text class="terminal-4267830071-r5" x="219.6" y="142" textLength="109.8" clip-path="url(#terminal-4267830071-line-5)">&#160;app-02&#160;&#160;</text><text class="terminal-4267830071-r5" x="329.4" y="142" textLength="109.8" clip-path="url(#terminal-4267830071-line-5)">&#160;app-02&#160;&#160;</text><text class="terminal-4267830071-r5" x="439.2" y="142" textLength="85.4" clip-path="url(#terminal-4267830071-line-5)">&#160;0.3.0&#160;</text><text class="terminal-4267830071-r7" x="536.8" y="142" textLength="85.4" clip-path="url(#terminal-4267830071-line-5)">45s&#160;ago</text><text class="terminal-4267830071-r7" x="707.6" y="142" textLength="549" clip-path="url(#terminal-4267830071-line-5)">dropped&#160;44s&#160;ago&#160;(the&#160;agent&#160;closed&#160;the&#160;connec…</text><text class="terminal-4267830071-r1" x="1342" y="142" textLength="12.2" clip-path="url(#terminal-4267830071-line-5)">
</text><text class="terminal-4267830071-r3" x="36.6" y="166.4" textLength="134.2" clip-path="url(#terminal-4267830071-line-6)">●&#160;connected</text><text class="terminal-4267830071-r5" x="219.6" y="166.4" textLength="109.8" clip-path="url(#terminal-4267830071-line-6)">&#160;db-01&#160;&#160;&#160;</text><text class="terminal-4267830071-r5" x="329.4" y="166.4" textLength="109.8" clip-path="url(#terminal-4267830071-line-6)">&#160;db-01&#160;&#160;&#160;</text><text class="terminal-4267830071-r5" x="439.2" y="166.4" textLength="85.4" clip-path="url(#terminal-4267830071-line-6)">&#160;0.3.0&#160;</text><text class="terminal-4267830071-r7" x="536.8" y="166.4" textLength="73.2" clip-path="url(#terminal-4267830071-line-6)">0s&#160;ago</text><text class="terminal-4267830071-r7" x="707.6" y="166.4" textLength="329.4" clip-path="url(#terminal-4267830071-line-6)">live&#160;·&#160;last&#160;snapshot&#160;0s&#160;ago</text><text class="terminal-4267830071-r1" x="1342" y="166.4" textLength="12.2" clip-path="url(#terminal-4267830071-line-6)">
</text><text class="terminal-4267830071-r8" x="24.4" y="190.8" textLength="195.2" clip-path="url(#terminal-4267830071-line-7)">&#160;●&#160;connected&#160;&#160;&#160;&#160;</text><text class="terminal-4267830071-r8" x="219.6" y="190.8" textLength="109.8" clip-path="url(#terminal-4267830071-line-7)">&#160;edge-03&#160;</text><text class="terminal-4267830071-r8" x="329.4" y="190.8" textLength="109.8" clip-path="url(#terminal-4267830071-line-7)">&#160;edge-03&#160;</text><text class="terminal-4267830071-r8" x="439.2" y="190.8" textLength="85.4" clip-path="url(#terminal-4267830071-line-7)">&#160;0.3.0&#160;</text><text class="terminal-4267830071-r8" x="524.6" y="190.8" textLength="170.8" clip-path="url(#terminal-4267830071-line-7)">&#160;0s&#160;ago&#160;&#160;&#160;&#160;&#160;&#160;&#160;</text><text class="terminal-4267830071-r8" x="695.4" y="190.8" textLength="573.4" clip-path="url(#terminal-4267830071-line-7)">&#160;live&#160;·&#160;last&#160;snapshot&#160;0s&#160;ago&#160;&#160;&#160;&#160;&#160;&#160;&#160;&#160;&#160;&#160;&#160;&#160;&#160;&#160;&#160;&#160;&#160;&#160;&#160;</text><text class="terminal-4267830071-r1" x="1342" y="190.8" textLength="12.2" clip-path="url(#terminal-4267830071-line-7)">
</text><text class="terminal-4267830071-r9" x="24.4" y="215.2" textLength="1293.2" clip-path="url(#terminal-4267830071-line-8)">──────────────────────────────────────────────────────────────────────────────────────────────────────────</text><text class="terminal-4267830071-r1" x="1342" y="215.2" textLength="12.2" clip-path="url(#terminal-4267830071-line-8)">
</text><text class="terminal-4267830071-r1" x="1342" y="239.6" textLength="12.2" clip-path="url(#terminal-4267830071-line-9)">
</text><text class="terminal-4267830071-r2" x="24.4" y="264" textLength="97.6" clip-path="url(#terminal-4267830071-line-10)">edge-03:</text><text class="terminal-4267830071-r1" x="1342" y="264" textLength="12.2" clip-path="url(#terminal-4267830071-line-10)">
</text><text class="terminal-4267830071-r7" x="36.6" y="288.4" textLength="207.4" clip-path="url(#terminal-4267830071-line-11)">state&#160;&#160;&#160;&#160;&#160;&#160;&#160;&#160;&#160;&#160;&#160;&#160;</text><text class="terminal-4267830071-r5" x="268.4" y="288.4" textLength="475.8" clip-path="url(#terminal-4267830071-line-11)">connected&#160;—&#160;live&#160;·&#160;last&#160;snapshot&#160;0s&#160;ago</text><text class="terminal-4267830071-r1" x="1342" y="288.4" textLength="12.2" clip-path="url(#terminal-4267830071-line-11)">
</text><text class="terminal-4267830071-r7" x="36.6" y="312.8" textLength="207.4" clip-path="url(#terminal-4267830071-line-12)">target_id&#160;&#160;&#160;&#160;&#160;&#160;&#160;&#160;</text><text class="terminal-4267830071-r5" x="268.4" y="312.8" textLength="475.8" clip-path="url(#terminal-4267830071-line-12)">tgt_ef8b651bbd46&#160;&#160;&#160;&#160;&#160;&#160;&#160;&#160;&#160;&#160;&#160;&#160;&#160;&#160;&#160;&#160;&#160;&#160;&#160;&#160;&#160;&#160;&#160;</text><text class="terminal-4267830071-r1" x="1342" y="312.8" textLength="12.2" clip-path="url(#terminal-4267830071-line-12)">
</text><text class="terminal-4267830071-r7" x="36.6" y="337.2" textLength="207.4" clip-path="url(#terminal-4267830071-line-13)">hostname&#160;&#160;&#160;&#160;&#160;&#160;&#160;&#160;&#160;</text><text class="terminal-4267830071-r5" x="268.4" y="337.2" textLength="475.8" clip-path="url(#terminal-4267830071-line-13)">edge-03&#160;&#160;&#160;&#160;&#160;&#160;&#160;&#160;&#160;&#160;&#160;&#160;&#160;&#160;&#160;&#160;&#160;&#160;&#160;&#160;&#160;&#160;&#160;&#160;&#160;&#160;&#160;&#160;&#160;&#160;&#160;&#160;</text><text class="terminal-4267830071-r1" x="1342" y="337.2" textLength="12.2" clip-path="url(#terminal-4267830071-line-13)">
</text><text class="terminal-4267830071-r7" x="36.6" y="361.6" textLength="207.4" clip-path="url(#terminal-4267830071-line-14)">agent_version&#160;&#160;&#160;&#160;</text><text class="terminal-4267830071-r5" x="268.4" y="361.6" textLength="475.8" clip-path="url(#terminal-4267830071-line-14)">0.3.0&#160;&#160;&#160;&#160;&#160;&#160;&#160;&#160;&#160;&#160;&#160;&#160;&#160;&#160;&#160;&#160;&#160;&#160;&#160;&#160;&#160;&#160;&#160;&#160;&#160;&#160;&#160;&#160;&#160;&#160;&#160;&#160;&#160;&#160;</text><text class="terminal-4267830071-r1" x="1342" y="361.6" textLength="12.2" clip-path="url(#terminal-4267830071-line-14)">
</text><text class="terminal-4267830071-r7" x="36.6" y="386" textLength="207.4" clip-path="url(#terminal-4267830071-line-15)">paired_at&#160;&#160;&#160;&#160;&#160;&#160;&#160;&#160;</text><text class="terminal-4267830071-r5" x="268.4" y="386" textLength="475.8" clip-path="url(#terminal-4267830071-line-15)">2026-10-03T08:55:33+00:00&#160;&#160;&#160;&#160;&#160;&#160;&#160;&#160;&#160;&#160;&#160;&#160;&#160;&#160;</text><text class="terminal-4267830071-r1" x="1342" y="386" textLength="12.2" clip-path="url(#terminal-4267830071-line-15)">
</text><text class="terminal-4267830071-r7" x="36.6" y="410.4" textLength="207.4" clip-path="url(#terminal-4267830071-line-16)">last_seen&#160;&#160;&#160;&#160;&#160;&#160;&#160;&#160;</text><text class="terminal-4267830071-r5" x="268.4" y="410.4" textLength="475.8" clip-path="url(#terminal-4267830071-line-16)">2026-10-03T08:56:20+00:00&#160;&#160;&#160;&#160;&#160;&#160;&#160;&#160;&#160;&#160;&#160;&#160;&#160;&#160;</text><text class="terminal-4267830071-r1" x="1342" y="410.4" textLength="12.2" clip-path="url(#terminal-4267830071-line-16)">
</text><text class="terminal-4267830071-r7" x="36.6" y="434.8" textLength="207.4" clip-path="url(#terminal-4267830071-line-17)">peer&#160;&#160;&#160;&#160;&#160;&#160;&#160;&#160;&#160;&#160;&#160;&#160;&#160;</text><text class="terminal-4267830071-r5" x="268.4" y="434.8" textLength="475.8" clip-path="url(#terminal-4267830071-line-17)">100.64.0.21&#160;&#160;&#160;&#160;&#160;&#160;&#160;&#160;&#160;&#160;&#160;&#160;&#160;&#160;&#160;&#160;&#160;&#160;&#160;&#160;&#160;&#160;&#160;&#160;&#160;&#160;&#160;&#160;</text><text class="terminal-4267830071-r1" x="1342" y="434.8" textLength="12.2" clip-path="url(#terminal-4267830071-line-17)">
</text><text class="terminal-4267830071-r7" x="36.6" y="459.2" textLength="207.4" clip-path="url(#terminal-4267830071-line-18)">connected_at&#160;&#160;&#160;&#160;&#160;</text><text class="terminal-4267830071-r5" x="268.4" y="459.2" textLength="475.8" clip-path="url(#terminal-4267830071-line-18)">2026-10-03T08:56:20+00:00&#160;&#160;&#160;&#160;&#160;&#160;&#160;&#160;&#160;&#160;&#160;&#160;&#160;&#160;</text><text class="terminal-4267830071-r1" x="1342" y="459.2" textLength="12.2" clip-path="url(#terminal-4267830071-line-18)">
</text><text class="terminal-4267830071-r7" x="36.6" y="483.6" textLength="207.4" clip-path="url(#terminal-4267830071-line-19)">last_telemetry_at</text><text class="terminal-4267830071-r5" x="268.4" y="483.6" textLength="475.8" clip-path="url(#terminal-4267830071-line-19)">2026-10-03T08:56:20+00:00&#160;&#160;&#160;&#160;&#160;&#160;&#160;&#160;&#160;&#160;&#160;&#160;&#160;&#160;</text><text class="terminal-4267830071-r1" x="1342" y="483.6" textLength="12.2" clip-path="url(#terminal-4267830071-line-19)">
</text><text class="terminal-4267830071-r7" x="36.6" y="508" textLength="207.4" clip-path="url(#terminal-4267830071-line-20)">collect_interval&#160;</text><text class="terminal-4267830071-r5" x="268.4" y="508" textLength="475.8" clip-path="url(#terminal-4267830071-line-20)">30.0&#160;&#160;&#160;&#160;&#160;&#160;&#160;&#160;&#160;&#160;&#160;&#160;&#160;&#160;&#160;&#160;&#160;&#160;&#160;&#160;&#160;&#160;&#160;&#160;&#160;&#160;&#160;&#160;&#160;&#160;&#160;&#160;&#160;&#160;&#160;</text><text class="terminal-4267830071-r1" x="1342" y="508" textLength="12.2" clip-path="url(#terminal-4267830071-line-20)">
</text><text class="terminal-4267830071-r7" x="36.6" y="532.4" textLength="207.4" clip-path="url(#terminal-4267830071-line-21)">investigated&#160;as&#160;&#160;</text><text class="terminal-4267830071-r5" x="268.4" y="532.4" textLength="475.8" clip-path="url(#terminal-4267830071-line-21)">edge-03&#160;(through&#160;its&#160;sub-agent&#160;only)&#160;&#160;&#160;</text><text class="terminal-4267830071-r1" x="1342" y="532.4" textLength="12.2" clip-path="url(#terminal-4267830071-line-21)">
</text><text class="terminal-4267830071-r7" x="36.6" y="556.8" textLength="85.4" clip-path="url(#terminal-4267830071-line-22)">when&#160;&#160;&#160;</text><text class="terminal-4267830071-r7" x="146.4" y="556.8" textLength="109.8" clip-path="url(#terminal-4267830071-line-22)">event&#160;&#160;&#160;&#160;</text><text class="terminal-4267830071-r7" x="280.6" y="556.8" textLength="134.2" clip-path="url(#terminal-4267830071-line-22)">detail&#160;&#160;&#160;&#160;&#160;</text><text class="terminal-4267830071-r1" x="1342" y="556.8" textLength="12.2" clip-path="url(#terminal-4267830071-line-22)">
</text><text class="terminal-4267830071-r5" x="36.6" y="581.2" textLength="85.4" clip-path="url(#terminal-4267830071-line-23)">45s&#160;ago</text><text class="terminal-4267830071-r5" x="146.4" y="581.2" textLength="109.8" clip-path="url(#terminal-4267830071-line-23)">connected</text><text class="terminal-4267830071-r5" x="280.6" y="581.2" textLength="134.2" clip-path="url(#terminal-4267830071-line-23)">100.64.0.21</text><text class="terminal-4267830071-r1" x="1342" y="581.2" textLength="12.2" clip-path="url(#terminal-4267830071-line-23)">
</text><text class="terminal-4267830071-r5" x="36.6" y="605.6" textLength="85.4" clip-path="url(#terminal-4267830071-line-24)">1s&#160;ago&#160;</text><text class="terminal-4267830071-r5" x="146.4" y="605.6" textLength="109.8" clip-path="url(#terminal-4267830071-line-24)">connected</text><text class="terminal-4267830071-r5" x="280.6" y="605.6" textLength="134.2" clip-path="url(#terminal-4267830071-line-24)">100.64.0.21</text><text class="terminal-4267830071-r1" x="1342" y="605.6" textLength="12.2" clip-path="url(#terminal-4267830071-line-24)">
</text><text class="terminal-4267830071-r1" x="1342" y="630" textLength="12.2" clip-path="url(#terminal-4267830071-line-25)">
</text><text class="terminal-4267830071-r1" x="1342" y="654.4" textLength="12.2" clip-path="url(#terminal-4267830071-line-26)">
</text><text class="terminal-4267830071-r1" x="1342" y="678.8" textLength="12.2" clip-path="url(#terminal-4267830071-line-27)">
</text><text class="terminal-4267830071-r1" x="1342" y="703.2" textLength="12.2" clip-path="url(#terminal-4267830071-line-28)">
</text><text class="terminal-4267830071-r1" x="1342" y="727.6" textLength="12.2" clip-path="url(#terminal-4267830071-line-29)">
</text><text class="terminal-4267830071-r1" x="1342" y="752" textLength="12.2" clip-path="url(#terminal-4267830071-line-30)">
</text><text class="terminal-4267830071-r7" x="24.4" y="776.4" textLength="1293.2" clip-path="url(#terminal-4267830071-line-31)">a&#160;add&#160;·&#160;k&#160;link&#160;a&#160;target&#160;·&#160;g&#160;update&#160;agent&#160;·&#160;t&#160;telemetry&#160;·&#160;i&#160;details&#160;·&#160;u&#160;unpair&#160;·&#160;p&#160;re-pair&#160;·&#160;n&#160;new&#160;code&#160;·&#160;x</text><text class="terminal-4267830071-r1" x="1342" y="776.4" textLength="12.2" clip-path="url(#terminal-4267830071-line-31)">
</text><text class="terminal-4267830071-r7" x="24.4" y="800.8" textLength="1085.8" clip-path="url(#terminal-4267830071-line-32)">dismiss&#160;code&#160;·&#160;f&#160;forget&#160;(unpaired)&#160;·&#160;c&#160;copy&#160;deploy&#160;cmds&#160;·&#160;l&#160;always-on&#160;listener&#160;·&#160;esc&#160;back</text><text class="terminal-4267830071-r1" x="1342" y="800.8" textLength="12.2" clip-path="url(#terminal-4267830071-line-32)">
</text>
    </g>
    </g>
</svg>
